<svg fill="none" xmlns="http://www.w3.org/2000/svg" viewBox="0 0 156 40"><path d="M26.137 39.878c-1.816 0-3.47-.393-4.96-1.18-1.464-.813-2.63-1.992-3.497-3.537-.868-1.572-1.302-3.443-1.302-5.611 0-1.654.285-3.497.854-5.53 1.247-4.338 3.2-7.401 5.856-9.19 2.683-1.79 5.543-2.684 8.58-2.684 2.765 0 5.259 1.003 7.482 3.009l1.22-1.18c.677-.569 1.26-.962 1.748-1.179.488-.216 1.057-.325 1.708-.325.705 0 1.274.176 1.708.529.434.325.65.772.65 1.342 0 .216-.04.474-.122.772L44.6 20.238c-.272.867-.597 1.477-.976 1.83-.353.352-.84.528-1.464.528-.65 0-1.234-.162-1.749-.488-.488-.325-1.057-.908-1.708-1.748-.867-1.139-1.64-1.938-2.317-2.4a3.51 3.51 0 00-2.156-.731c-1.22 0-2.385.623-3.497 1.87-1.084 1.22-2.033 3.267-2.846 6.14-.515 1.87-.773 3.484-.773 4.84 0 1.436.271 2.534.814 3.293.569.732 1.355 1.098 2.358 1.098.868 0 1.532-.203 1.993-.61.488-.407.867-1.112 1.138-2.115l.285-1.016c.135-.542.203-.908.203-1.098 0-.325-.081-.556-.244-.691-.135-.136-.38-.285-.732-.448l-1.423-.528c-.623-.244-.935-.691-.935-1.342 0-.19.013-.339.04-.447.109-.353.299-.61.57-.773.298-.163.745-.244 1.342-.244l12.28.04c.894 0 1.342.285 1.342.855 0 .108-.027.27-.082.488-.108.406-.284.732-.528.975-.244.244-.597.488-1.057.732l-1.058.61c-.27.163-.474.326-.61.488a1.11 1.11 0 00-.284.529l-2.155 7.523c-.272.894-.583 1.49-.936 1.789-.325.298-.732.447-1.22.447h-1.707c-.651 0-1.193-.136-1.627-.407-.407-.27-.745-.8-1.017-1.585l-.406-1.18c-1.952 2.277-4.392 3.416-7.32 3.416zM57.848 9.584c1.572 0 2.724.298 3.456.895.76.596 1.139 1.41 1.139 2.44 0 .596-.095 1.179-.285 1.748l-6.384 20.738a3.58 3.58 0 00-.122.854c0 .352.068.637.203.854.136.19.326.38.57.57.19.189.325.352.406.487.082.109.095.258.041.447-.136.353-.407.61-.813.773-.407.163-1.03.244-1.87.244h-9.272c-.705 0-1.22-.108-1.545-.325-.325-.244-.434-.556-.325-.935.108-.326.393-.61.854-.854a3.726 3.726 0 001.016-.773c.271-.298.502-.773.691-1.423l6.181-20.291c.081-.244.122-.447.122-.61 0-.298-.081-.542-.244-.732a2.819 2.819 0 00-.57-.57 4.33 4.33 0 01-.609-.569c-.108-.162-.122-.38-.04-.65.162-.624 1.016-1.166 2.561-1.627a16.84 16.84 0 014.839-.691zm12.614 8.539c1.572 0 2.724.299 3.456.895.732.596 1.098 1.41 1.098 2.44a5.62 5.62 0 01-.284 1.789L70.99 35.405c-.082.325-.122.61-.122.854 0 .352.067.637.203.854.136.19.325.38.57.57.19.189.325.352.406.487.081.109.095.258.04.447-.135.353-.406.61-.813.773-.406.163-1.03.244-1.87.244h-9.271c-.705 0-1.22-.108-1.545-.325-.326-.244-.434-.556-.326-.935.109-.326.393-.61.854-.854a3.727 3.727 0 001.017-.773c.27-.298.501-.773.691-1.423l3.538-11.752c.081-.244.122-.447.122-.61 0-.298-.068-.528-.204-.691a2.505 2.505 0 00-.61-.57c-.27-.216-.46-.406-.569-.569-.108-.162-.122-.38-.04-.65.162-.624 1.016-1.166 2.561-1.627a15.972 15.972 0 014.84-.732zm2.724-8.986c1.058 0 1.939.352 2.644 1.057.704.678 1.057 1.518 1.057 2.521 0 .705-.19 1.396-.57 2.074a4.334 4.334 0 01-1.545 1.667c-.65.407-1.382.61-2.195.61-1.03 0-1.898-.339-2.603-1.017-.678-.704-1.03-1.572-1.057-2.602 0-.678.176-1.342.528-1.992a4.441 4.441 0 011.505-1.668c.65-.433 1.396-.65 2.236-.65zm19.649 9.515c.516 0 .909.108 1.18.325.298.217.447.515.447.895 0 .108-.027.298-.081.57-.353 1.192-1.166 1.788-2.44 1.788h-2.359l-3.05 10.044a3.962 3.962 0 00-.203 1.26c0 .489.136.827.407 1.017.271.19.65.285 1.138.285.434 0 .976-.054 1.627-.163a3.6 3.6 0 01.854-.122c.19 0 .325.068.407.203.108.109.162.258.162.448.027.542-.38 1.206-1.22 1.992-.813.76-1.924 1.423-3.334 1.993-1.41.542-2.968.813-4.676.813-1.844 0-3.321-.42-4.433-1.26-1.111-.84-1.667-1.993-1.667-3.457a5.9 5.9 0 01.326-1.952l2.602-8.051c.135-.46.203-.827.203-1.098 0-.542-.135-1.003-.406-1.383-.244-.379-.597-.772-1.058-1.179-.406-.38-.69-.691-.853-.935-.163-.271-.204-.583-.123-.935.109-.353.34-.624.692-.814.352-.19.908-.284 1.667-.284h2.277l2.562-2.562c.894-.895 1.708-1.518 2.44-1.87.759-.353 1.735-.529 2.927-.529 1.708 0 2.562.65 2.562 1.952 0 .406-.054.786-.163 1.138l-.569 1.87h2.155z" fill="#473F3E"/><path d="M108.283 18.652c.515 0 .908.108 1.179.325.298.217.447.515.447.895 0 .108-.027.298-.081.57-.353 1.192-1.166 1.788-2.44 1.788h-2.358l-3.05 10.044a3.947 3.947 0 00-.203 1.26c0 .489.135.827.406 1.017.271.19.651.285 1.139.285.433 0 .976-.054 1.626-.163a3.59 3.59 0 01.854-.122c.19 0 .325.068.407.203.108.109.162.258.162.448.028.542-.379 1.206-1.219 1.992-.814.76-1.925 1.423-3.335 1.993-1.409.542-2.968.813-4.676.813-1.844 0-3.32-.42-4.432-1.26-1.112-.84-1.668-1.993-1.668-3.457 0-.678.109-1.328.326-1.952l2.602-8.051c.136-.46.204-.827.204-1.098 0-.542-.136-1.003-.407-1.383-.244-.379-.597-.772-1.057-1.179-.407-.38-.692-.691-.854-.935-.163-.271-.204-.583-.122-.935.108-.353.339-.624.691-.814.352-.19.908-.284 1.667-.284h2.277l2.562-2.562c.895-.895 1.708-1.518 2.44-1.87.759-.353 1.735-.529 2.928-.529 1.707 0 2.561.65 2.561 1.952 0 .406-.054.786-.162 1.138l-.57 1.87h2.156zm13.08-.732c3.443 0 5.937.556 7.482 1.667 1.546 1.085 2.318 2.48 2.318 4.188 0 .516-.054.99-.162 1.424-.407 1.789-1.546 3.076-3.416 3.863-1.844.759-4.026 1.138-6.547 1.138a24.73 24.73 0 01-3.578-.244c-.027 1.41.352 2.4 1.138 2.969.786.569 1.884.854 3.294.854a8.42 8.42 0 001.871-.204 53.182 53.182 0 002.277-.691c.759-.271 1.274-.407 1.545-.407.298 0 .447.177.447.529.027.949-.325 1.952-1.057 3.009-.732 1.03-1.816 1.911-3.253 2.643-1.437.732-3.172 1.098-5.205 1.098-3.009 0-5.476-.759-7.401-2.277-1.924-1.518-2.887-3.728-2.887-6.628 0-.813.109-1.762.326-2.847.677-3.334 2.155-5.841 4.432-7.522 2.304-1.708 5.096-2.562 8.376-2.562zm-3.619 9.596c.109.028.258.041.448.041 1.138 0 2.006-.528 2.602-1.586.597-1.057.881-2.236.854-3.537-.027-.76-.244-1.139-.651-1.139-.298 0-.65.244-1.057.732-.406.46-.813 1.166-1.22 2.114-.379.95-.705 2.074-.976 3.375zm32.554-9.393c1.518 0 2.724.461 3.619 1.383.922.921 1.383 2.06 1.383 3.416 0 .515-.055.989-.163 1.423-.271 1.111-.786 1.965-1.545 2.562-.759.596-1.667.894-2.725.894-1.03 0-1.816-.244-2.358-.732-.515-.488-.976-1.138-1.383-1.952-.217-.46-.42-.8-.61-1.016-.189-.217-.406-.326-.65-.326-.271 0-.515.109-.732.326-.19.217-.366.596-.529 1.138l-3.131 10.166c-.054.136-.081.339-.081.61 0 .352.095.65.284.895.217.217.502.433.854.65.326.217.543.393.651.529.108.135.149.312.122.529-.054.352-.258.61-.61.772-.325.163-.895.244-1.708.244h-10.41c-.704 0-1.206-.108-1.504-.325-.325-.244-.447-.556-.366-.935.108-.326.393-.61.854-.854a3.717 3.717 0 001.016-.773c.272-.298.502-.773.692-1.423l3.619-11.752c.054-.135.081-.325.081-.57 0-.297-.068-.528-.203-.69-.109-.163-.298-.366-.57-.61-.271-.217-.46-.407-.569-.57-.108-.162-.122-.38-.04-.65.162-.624 1.016-1.166 2.561-1.627a15.97 15.97 0 014.839-.732c1.112 0 2.033.258 2.765.773.732.488 1.207 1.193 1.424 2.114 1.301-1.924 3.009-2.887 5.123-2.887z" fill="#473F3E"/><path fill-rule="evenodd" clip-rule="evenodd" d="M5.722 1.093c-.13 2.024-.289 4.1-1.45 5.717-.56.804-.962 1.568-2.025 2.054-.713.532-2.388.595-2.237 1.708l.02.084.021.083c.35 1.064 1.632.611 2.511.746.96.115 1.88.417 2.752.863 1.785.883 2.988 1.468 4.082 3.143.983 1.57 2.153.835 2.082-.298-.193-3.316.271-3.83 3.952-6.872.922-.54 1.218-.879 1.009-1.889-.25-1-1.942-.667-2.7-.655C10.494 5.48 9.414 4.2 7.987 1.192 7.507.117 5.842-.796 5.722 1.093z" fill="#FDC777"/></svg>
