<svg width="184" height="48" viewBox="0 0 184 48" fill="none" xmlns="http://www.w3.org/2000/svg"><g fill="#FDE277"><path d="M31.33 47.41c-2.144 0-4.096-.464-5.856-1.392-1.728-.96-3.104-2.352-4.128-4.176-1.024-1.856-1.536-4.064-1.536-6.624 0-1.952.336-4.128 1.008-6.528 1.472-5.12 3.776-8.736 6.912-10.848 3.168-2.112 6.544-3.168 10.128-3.168 3.264 0 6.208 1.184 8.832 3.552l1.44-1.392c.8-.672 1.488-1.136 2.064-1.392.576-.256 1.248-.384 2.016-.384.832 0 1.504.208 2.016.624.512.384.768.912.768 1.584 0 .256-.048.56-.144.912l-1.728 6.048c-.32 1.024-.704 1.744-1.152 2.16-.416.416-.992.624-1.728.624-.768 0-1.456-.192-2.064-.576-.576-.384-1.248-1.072-2.016-2.064-1.024-1.344-1.936-2.288-2.736-2.832-.768-.576-1.616-.864-2.544-.864-1.44 0-2.816.736-4.128 2.208-1.28 1.44-2.4 3.856-3.36 7.248-.608 2.208-.912 4.112-.912 5.712 0 1.696.32 2.992.96 3.888.672.864 1.6 1.296 2.784 1.296 1.024 0 1.808-.24 2.352-.72.576-.48 1.024-1.312 1.344-2.496l.336-1.2c.16-.64.24-1.072.24-1.296 0-.384-.096-.656-.288-.816-.16-.16-.448-.336-.864-.528l-1.68-.624c-.736-.288-1.104-.816-1.104-1.584 0-.224.016-.4.048-.528.128-.416.352-.72.672-.912.352-.192.88-.288 1.584-.288l14.496.048c1.056 0 1.584.336 1.584 1.008 0 .128-.032.32-.096.576-.128.48-.336.864-.624 1.152-.288.288-.704.576-1.248.864l-1.248.72c-.32.192-.56.384-.72.576a1.31 1.31 0 0 0-.336.624l-2.544 8.88c-.32 1.056-.688 1.76-1.104 2.112-.384.352-.864.528-1.44.528H43.57c-.768 0-1.408-.16-1.92-.48-.48-.32-.88-.944-1.2-1.872l-.48-1.392c-2.304 2.688-5.184 4.032-8.64 4.032zM68.762 11.65c1.856 0 3.216.352 4.08 1.056.896.704 1.344 1.664 1.344 2.88 0 .704-.112 1.392-.336 2.064l-7.536 24.48c-.096.384-.144.72-.144 1.008 0 .416.08.752.24 1.008.16.224.384.448.672.672.224.224.384.416.48.576.096.128.112.304.048.528-.16.416-.48.72-.96.912-.48.192-1.216.288-2.208.288H53.498c-.832 0-1.44-.128-1.824-.384-.384-.288-.512-.656-.384-1.104.128-.384.464-.72 1.008-1.008.48-.256.88-.56 1.2-.912.32-.352.592-.912.816-1.68l7.296-23.952c.096-.288.144-.528.144-.72 0-.352-.096-.64-.288-.864a3.326 3.326 0 0 0-.672-.672c-.32-.256-.56-.48-.72-.672-.128-.192-.144-.448-.048-.768.192-.736 1.2-1.376 3.024-1.92a19.88 19.88 0 0 1 5.712-.816zM83.652 21.73c1.856 0 3.216.352 4.08 1.056.864.704 1.296 1.664 1.296 2.88 0 .736-.112 1.44-.336 2.112L84.276 42.13c-.096.384-.144.72-.144 1.008 0 .416.08.752.24 1.008.16.224.384.448.672.672.224.224.384.416.48.576.096.128.112.304.048.528-.16.416-.48.72-.96.912-.48.192-1.216.288-2.208.288H71.46c-.832 0-1.44-.128-1.824-.384-.384-.288-.512-.656-.384-1.104.128-.384.464-.72 1.008-1.008.48-.256.88-.56 1.2-.912.32-.352.592-.912.816-1.68l4.176-13.872c.096-.288.144-.528.144-.72 0-.352-.08-.624-.24-.816-.16-.224-.4-.448-.72-.672-.32-.256-.544-.48-.672-.672-.128-.192-.144-.448-.048-.768.192-.736 1.2-1.376 3.024-1.92a18.855 18.855 0 0 1 5.712-.864zm3.216-10.608c1.248 0 2.288.416 3.12 1.248.832.8 1.248 1.792 1.248 2.976 0 .832-.224 1.648-.672 2.448a5.116 5.116 0 0 1-1.824 1.968c-.768.48-1.632.72-2.592.72-1.216 0-2.24-.4-3.072-1.2-.8-.832-1.216-1.856-1.248-3.072 0-.8.208-1.584.624-2.352a5.241 5.241 0 0 1 1.776-1.968c.768-.512 1.648-.768 2.64-.768zM110.063 22.354c.608 0 1.072.128 1.392.384.352.256.528.608.528 1.056 0 .128-.032.352-.096.672-.416 1.408-1.376 2.112-2.88 2.112h-2.784l-3.6 11.856c-.16.48-.24.976-.24 1.488 0 .576.16.976.48 1.2.32.224.768.336 1.344.336.512 0 1.152-.064 1.92-.192.384-.096.72-.144 1.008-.144.224 0 .384.08.48.24.128.128.192.304.192.528.032.64-.448 1.424-1.44 2.352-.96.896-2.272 1.68-3.936 2.352-1.664.64-3.504.96-5.52.96-2.176 0-3.92-.496-5.232-1.488-1.312-.992-1.968-2.352-1.968-4.08 0-.8.128-1.568.384-2.304l3.072-9.504c.16-.544.24-.976.24-1.296 0-.64-.16-1.184-.48-1.632-.288-.448-.704-.912-1.248-1.392-.48-.448-.816-.816-1.008-1.104-.192-.32-.24-.688-.144-1.104.128-.416.4-.736.816-.96.416-.224 1.072-.336 1.968-.336h2.688l3.024-3.024c1.056-1.056 2.016-1.792 2.88-2.208.896-.416 2.048-.624 3.456-.624 2.016 0 3.024.768 3.024 2.304 0 .48-.064.928-.192 1.344l-.672 2.208h2.544z"/><path d="M128.297 22.354c.608 0 1.072.128 1.392.384.352.256.528.608.528 1.056 0 .128-.032.352-.096.672-.416 1.408-1.376 2.112-2.88 2.112h-2.784l-3.6 11.856c-.16.48-.24.976-.24 1.488 0 .576.16.976.48 1.2.32.224.768.336 1.344.336.512 0 1.152-.064 1.92-.192.384-.096.72-.144 1.008-.144.224 0 .384.08.48.24.128.128.192.304.192.528.032.64-.448 1.424-1.44 2.352-.96.896-2.272 1.68-3.936 2.352-1.664.64-3.504.96-5.52.96-2.176 0-3.92-.496-5.232-1.488-1.312-.992-1.968-2.352-1.968-4.08 0-.8.128-1.568.384-2.304l3.072-9.504c.16-.544.24-.976.24-1.296 0-.64-.16-1.184-.48-1.632-.288-.448-.704-.912-1.248-1.392-.48-.448-.816-.816-1.008-1.104-.192-.32-.24-.688-.144-1.104.128-.416.4-.736.816-.96.416-.224 1.072-.336 1.968-.336h2.688l3.024-3.024c1.056-1.056 2.016-1.792 2.88-2.208.896-.416 2.048-.624 3.456-.624 2.016 0 3.024.768 3.024 2.304 0 .48-.064.928-.192 1.344l-.672 2.208h2.544zM143.738 21.49c4.064 0 7.008.656 8.832 1.968 1.824 1.28 2.736 2.928 2.736 4.944a6.92 6.92 0 0 1-.192 1.68c-.48 2.112-1.824 3.632-4.032 4.56-2.176.896-4.752 1.344-7.728 1.344a29.21 29.21 0 0 1-4.224-.288c-.032 1.664.416 2.832 1.344 3.504.928.672 2.224 1.008 3.888 1.008.768 0 1.504-.08 2.208-.24.704-.192 1.6-.464 2.688-.816.896-.32 1.504-.48 1.824-.48.352 0 .528.208.528.624.032 1.12-.384 2.304-1.248 3.552-.864 1.216-2.144 2.256-3.84 3.12-1.696.864-3.744 1.296-6.144 1.296-3.552 0-6.464-.896-8.736-2.688-2.272-1.792-3.408-4.4-3.408-7.824 0-.96.128-2.08.384-3.36.8-3.936 2.544-6.896 5.232-8.88 2.72-2.016 6.016-3.024 9.888-3.024zm-4.272 11.328c.128.032.304.048.528.048 1.344 0 2.368-.624 3.072-1.872.704-1.248 1.04-2.64 1.008-4.176-.032-.896-.288-1.344-.768-1.344-.352 0-.768.288-1.248.864-.48.544-.96 1.376-1.44 2.496-.448 1.12-.832 2.448-1.152 3.984zM177.893 21.73c1.792 0 3.216.544 4.272 1.632 1.088 1.088 1.632 2.432 1.632 4.032a6.92 6.92 0 0 1-.192 1.68c-.32 1.312-.928 2.32-1.824 3.024-.896.704-1.968 1.056-3.216 1.056-1.216 0-2.144-.288-2.784-.864-.608-.576-1.152-1.344-1.632-2.304-.256-.544-.496-.944-.72-1.2-.224-.256-.48-.384-.768-.384-.32 0-.608.128-.864.384-.224.256-.432.704-.624 1.344l-3.696 12c-.064.16-.096.4-.096.72 0 .416.112.768.336 1.056.256.256.592.512 1.008.768.384.256.64.464.768.624.128.16.176.368.144.624-.064.416-.304.72-.72.912-.384.192-1.056.288-2.016.288h-12.288c-.832 0-1.424-.128-1.776-.384-.384-.288-.528-.656-.432-1.104.128-.384.464-.72 1.008-1.008.48-.256.88-.56 1.2-.912.32-.352.592-.912.816-1.68l4.272-13.872c.064-.16.096-.384.096-.672 0-.352-.08-.624-.24-.816-.128-.192-.352-.432-.672-.72-.32-.256-.544-.48-.672-.672-.128-.192-.144-.448-.048-.768.192-.736 1.2-1.376 3.024-1.92a18.855 18.855 0 0 1 5.712-.864c1.312 0 2.4.304 3.264.912.864.576 1.424 1.408 1.68 2.496 1.536-2.272 3.552-3.408 6.048-3.408z"/></g><path fill-rule="evenodd" clip-rule="evenodd" d="M7.23 1.627c-.152 2.39-.34 4.84-1.71 6.749-.662.948-1.136 1.85-2.39 2.424-.842.628-2.82.703-2.642 2.017l.024.098.025.099c.413 1.255 1.927.721 2.965.88 1.131.136 2.218.492 3.248 1.019 2.106 1.042 3.526 1.733 4.818 3.71 1.16 1.852 2.542.986 2.457-.352-.227-3.914.32-4.52 4.666-8.112 1.089-.637 1.438-1.037 1.19-2.23-.294-1.18-2.292-.786-3.187-.772-3.83-.351-5.105-1.862-6.79-5.413-.565-1.27-2.53-2.347-2.673-.117z" fill="#0788DF"/></svg>
